<?xml version="1.0" encoding="UTF-8"?>
<svg xmlns="http://www.w3.org/2000/svg" xmlns:xlink="http://www.w3.org/1999/xlink" viewBox="0 0 96 96" width="96px" height="96px">
<g id="surface6108821">
<path style=" stroke:none;fill-rule:nonzero;fill:rgb(100%,100%,100%);fill-opacity:1;" d="M 48 84 C 28.117188 84 12 67.882812 12 48 C 12 28.117188 28.117188 12 48 12 C 67.882812 12 84 28.117188 84 48 C 84 67.882812 67.882812 84 48 84 Z M 48 84 "/>
<path style=" stroke:none;fill-rule:nonzero;fill:rgb(87.843138%,48.627451%,58.823532%);fill-opacity:1;" d="M 79.972656 47.355469 C 80.082031 40.539062 78.546875 32.429688 75.34375 22.917969 L 72.835938 15.460938 L 69.429688 22.554688 C 69.246094 22.933594 69.039062 23.304688 68.820312 23.667969 C 63.222656 18.863281 55.957031 15.941406 48 15.941406 C 30.328125 15.941406 16 30.265625 16 47.941406 C 16 65.613281 30.328125 79.941406 48 79.941406 C 65.671875 79.941406 80 65.613281 80 47.941406 C 80 47.742188 79.972656 47.554688 79.972656 47.355469 Z M 79.972656 47.355469 "/>
<path style=" stroke:none;fill-rule:nonzero;fill:rgb(100%,100%,100%);fill-opacity:1;" d="M 72.617188 61.632812 C 67.621094 68.515625 58.773438 68.886719 50.449219 68.738281 L 36.5 68.738281 C 43.585938 66.191406 47.800781 65.585938 52.105469 63.300781 C 60.214844 59.035156 68.230469 49.707031 69.898438 40 C 66.8125 49.339844 57.453125 57.359375 48.925781 60.625 C 43.082031 62.851562 32.527344 65.015625 32.527344 65.015625 L 32.101562 64.78125 C 24.917969 61.167969 24.699219 45.082031 37.761719 39.890625 C 43.476562 37.613281 48.949219 38.863281 55.125 37.339844 C 61.722656 35.722656 69.351562 30.605469 72.453125 23.941406 C 75.929688 34.605469 80.113281 51.308594 72.617188 61.632812 Z M 34.667969 71.050781 C 34.21875 71.613281 33.527344 71.941406 32.808594 71.941406 C 31.492188 71.941406 30.414062 70.855469 30.414062 69.539062 C 30.414062 68.222656 31.5 67.140625 32.808594 67.140625 C 33.355469 67.140625 33.890625 67.328125 34.3125 67.675781 C 35.335938 68.507812 35.496094 70.027344 34.667969 71.050781 Z M 34.667969 71.050781 "/>
</g>
</svg>
